{
  "accessors": [
    {
      "bufferView": 2,
      "componentType": 5126,
      "count": 499,
      "max": [
        0.43276000022888184,
        0.43276000022888184,
        0.43276000022888184
      ],
      "min": [
        -0.43276000022888184,
        -0.43276000022888184,
        -0.43276000022888184
      ],
      "type": "VEC3"
    },
    {
      "bufferView": 2,
      "byteOffset": 5988,
      "componentType": 5126,
      "count": 499,
      "max": [
        1.0,
        1.0,
        1.0
      ],
      "min": [
        -1.0,
        -1.0,
        -1.0
      ],
      "type": "VEC3"
    },
    {
      "bufferView": 1,
      "componentType": 5126,
      "count": 499,
      "max": [
        0.9989399909973145,
        0.9836199879646301
      ],
      "min": [
        0.0,
        0.0
      ],
      "type": "VEC2"
    },
    {
      "bufferView": 0,
      "componentType": 5125,
      "count": 2880,
      "type": "SCALAR"
    },
    {
      "bufferView": 2,
      "byteOffset": 11976,
      "componentType": 5126,
      "count": 499,
      "max": [
        0.43276000022888184,
        0.43276000022888184,
        0.43276000022888184
      ],
      "min": [
        -0.43276000022888184,
        -0.43276000022888184,
        -0.43276000022888184
      ],
      "type": "VEC3"
    },
    {
      "bufferView": 2,
      "byteOffset": 17964,
      "componentType": 5126,
      "count": 499,
      "max": [
        1.0,
        1.0,
        1.0
      ],
      "min": [
        -1.0,
        -1.0,
        -1.0
      ],
      "type": "VEC3"
    },
    {
      "bufferView": 1,
      "byteOffset": 3992,
      "componentType": 5126,
      "count": 499,
      "max": [
        0.9989399909973145,
        0.9836199879646301
      ],
      "min": [
        0.0,
        0.0
      ],
      "type": "VEC2"
    },
    {
      "bufferView": 0,
      "byteOffset": 11520,
      "componentType": 5125,
      "count": 2880,
      "type": "SCALAR"
    },
    {
      "bufferView": 2,
      "byteOffset": 23952,
      "componentType": 5126,
      "count": 499,
      "max": [
        0.43276000022888184,
        0.43276000022888184,
        0.43276000022888184
      ],
      "min": [
        -0.43276000022888184,
        -0.43276000022888184,
        -0.43276000022888184
      ],
      "type": "VEC3"
    },
    {
      "bufferView": 2,
      "byteOffset": 29940,
      "componentType": 5126,
      "count": 499,
      "max": [
        1.0,
        1.0,
        1.0
      ],
      "min": [
        -1.0,
        -1.0,
        -1.0
      ],
      "type": "VEC3"
    },
    {
      "bufferView": 1,
      "byteOffset": 7984,
      "componentType": 5126,
      "count": 499,
      "max": [
        0.9989399909973145,
        0.9836199879646301
      ],
      "min": [
        0.0,
        0.0
      ],
      "type": "VEC2"
    },
    {
      "bufferView": 0,
      "byteOffset": 23040,
      "componentType": 5125,
      "count": 2880,
      "type": "SCALAR"
    },
    {
      "bufferView": 2,
      "byteOffset": 35928,
      "componentType": 5126,
      "count": 499,
      "max": [
        0.43276000022888184,
        0.43276000022888184,
        0.43276000022888184
      ],
      "min": [
        -0.43276000022888184,
        -0.43276000022888184,
        -0.43276000022888184
      ],
      "type": "VEC3"
    },
    {
      "bufferView": 2,
      "byteOffset": 41916,
      "componentType": 5126,
      "count": 499,
      "max": [
        1.0,
        1.0,
        1.0
      ],
      "min": [
        -1.0,
        -1.0,
        -1.0
      ],
      "type": "VEC3"
    },
    {
      "bufferView": 1,
      "byteOffset": 11976,
      "componentType": 5126,
      "count": 499,
      "max": [
        0.9989399909973145,
        0.9836199879646301
      ],
      "min": [
        0.0,
        0.0
      ],
      "type": "VEC2"
    },
    {
      "bufferView": 0,
      "byteOffset": 34560,
      "componentType": 5125,
      "count": 2880,
      "type": "SCALAR"
    },
    {
      "bufferView": 2,
      "byteOffset": 47904,
      "componentType": 5126,
      "count": 499,
      "max": [
        0.43276000022888184,
        0.43276000022888184,
        0.43276000022888184
      ],
      "min": [
        -0.43276000022888184,
        -0.43276000022888184,
        -0.43276000022888184
      ],
      "type": "VEC3"
    },
    {
      "bufferView": 2,
      "byteOffset": 53892,
      "componentType": 5126,
      "count": 499,
      "max": [
        1.0,
        1.0,
        1.0
      ],
      "min": [
        -1.0,
        -1.0,
        -1.0
      ],
      "type": "VEC3"
    },
    {
      "bufferView": 1,
      "byteOffset": 15968,
      "componentType": 5126,
      "count": 499,
      "max": [
        0.9989399909973145,
        0.9836199879646301
      ],
      "min": [
        0.0,
        0.0
      ],
      "type": "VEC2"
    },
    {
      "bufferView": 0,
      "byteOffset": 46080,
      "componentType": 5125,
      "count": 2880,
      "type": "SCALAR"
    },
    {
      "bufferView": 2,
      "byteOffset": 59880,
      "componentType": 5126,
      "count": 499,
      "max": [
        0.43276000022888184,
        0.43276000022888184,
        0.43276000022888184
      ],
      "min": [
        -0.43276000022888184,
        -0.43276000022888184,
        -0.43276000022888184
      ],
      "type": "VEC3"
    },
    {
      "bufferView": 2,
      "byteOffset": 65868,
      "componentType": 5126,
      "count": 499,
      "max": [
        1.0,
        1.0,
        1.0
      ],
      "min": [
        -1.0,
        -1.0,
        -1.0
      ],
      "type": "VEC3"
    },
    {
      "bufferView": 1,
      "byteOffset": 19960,
      "componentType": 5126,
      "count": 499,
      "max": [
        0.9989399909973145,
        0.9836199879646301
      ],
      "min": [
        0.0,
        0.0
      ],
      "type": "VEC2"
    },
    {
      "bufferView": 0,
      "byteOffset": 57600,
      "componentType": 5125,
      "count": 2880,
      "type": "SCALAR"
    },
    {
      "bufferView": 2,
      "byteOffset": 71856,
      "componentType": 5126,
      "count": 499,
      "max": [
        0.43276000022888184,
        0.43276000022888184,
        0.43276000022888184
      ],
      "min": [
        -0.43276000022888184,
        -0.43276000022888184,
        -0.43276000022888184
      ],
      "type": "VEC3"
    },
    {
      "bufferView": 2,
      "byteOffset": 77844,
      "componentType": 5126,
      "count": 499,
      "max": [
        1.0,
        1.0,
        1.0
      ],
      "min": [
        -1.0,
        -1.0,
        -1.0
      ],
      "type": "VEC3"
    },
    {
      "bufferView": 1,
      "byteOffset": 23952,
      "componentType": 5126,
      "count": 499,
      "max": [
        0.9989399909973145,
        0.9836199879646301
      ],
      "min": [
        0.0,
        0.0
      ],
      "type": "VEC2"
    },
    {
      "bufferView": 0,
      "byteOffset": 69120,
      "componentType": 5125,
      "count": 2880,
      "type": "SCALAR"
    },
    {
      "bufferView": 2,
      "byteOffset": 83832,
      "componentType": 5126,
      "count": 499,
      "max": [
        0.43276000022888184,
        0.43276000022888184,
        0.43276000022888184
      ],
      "min": [
        -0.43276000022888184,
        -0.43276000022888184,
        -0.43276000022888184
      ],
      "type": "VEC3"
    },
    {
      "bufferView": 2,
      "byteOffset": 89820,
      "componentType": 5126,
      "count": 499,
      "max": [
        1.0,
        1.0,
        1.0
      ],
      "min": [
        -1.0,
        -1.0,
        -1.0
      ],
      "type": "VEC3"
    },
    {
      "bufferView": 1,
      "byteOffset": 27944,
      "componentType": 5126,
      "count": 499,
      "max": [
        0.9989399909973145,
        0.9836199879646301
      ],
      "min": [
        0.0,
        0.0
      ],
      "type": "VEC2"
    },
    {
      "bufferView": 0,
      "byteOffset": 80640,
      "componentType": 5125,
      "count": 2880,
      "type": "SCALAR"
    },
    {
      "bufferView": 2,
      "byteOffset": 95808,
      "componentType": 5126,
      "count": 499,
      "max": [
        0.43276000022888184,
        0.43276000022888184,
        0.43276000022888184
      ],
      "min": [
        -0.43276000022888184,
        -0.43276000022888184,
        -0.43276000022888184
      ],
      "type": "VEC3"
    },
    {
      "bufferView": 2,
      "byteOffset": 101796,
      "componentType": 5126,
      "count": 499,
      "max": [
        1.0,
        1.0,
        1.0
      ],
      "min": [
        -1.0,
        -1.0,
        -1.0
      ],
      "type": "VEC3"
    },
    {
      "bufferView": 1,
      "byteOffset": 31936,
      "componentType": 5126,
      "count": 499,
      "max": [
        0.9989399909973145,
        0.9836199879646301
      ],
      "min": [
        0.0,
        0.0
      ],
      "type": "VEC2"
    },
    {
      "bufferView": 0,
      "byteOffset": 92160,
      "componentType": 5125,
      "count": 2880,
      "type": "SCALAR"
    }
  ],
  "asset": {
    "extras": {
      "author": "dante6686 (https://sketchfab.com/dante6686)",
      "license": "CC-BY-SA-4.0 (http://creativecommons.org/licenses/by-sa/4.0/)",
      "source": "https://sketchfab.com/3d-models/sci-fi-planets-91814453535b4016be5a1c213ead23f9",
      "title": "Sci Fi Planets"
    },
    "generator": "Sketchfab-12.66.0",
    "version": "2.0"
  },
  "bufferViews": [
    {
      "buffer": 0,
      "byteLength": 103680,
      "name": "floatBufferViews",
      "target": 34963
    },
    {
      "buffer": 0,
      "byteLength": 35928,
      "byteOffset": 103680,
      "byteStride": 8,
      "name": "floatBufferViews",
      "target": 34962
    },
    {
      "buffer": 0,
      "byteLength": 107784,
      "byteOffset": 139608,
      "byteStride": 12,
      "name": "floatBufferViews",
      "target": 34962
    }
  ],
  "buffers": [
    {
      "byteLength": 247392,
      "uri": "scene.bin"
    }
  ],
  "images": [
    {
      "uri": "textures/Planet_MAT.008_baseColor.jpeg"
    },
    {
      "uri": "textures/Planet_MAT.007_baseColor.jpeg"
    },
    {
      "uri": "textures/Planet_MAT.006_baseColor.jpeg"
    },
    {
      "uri": "textures/Planet_MAT.005_baseColor.jpeg"
    },
    {
      "uri": "textures/Planet_MAT.004_baseColor.jpeg"
    },
    {
      "uri": "textures/Planet_MAT.003_baseColor.jpeg"
    },
    {
      "uri": "textures/Planet_MAT.002_baseColor.jpeg"
    },
    {
      "uri": "textures/Planet_MAT.001_baseColor.jpeg"
    },
    {
      "uri": "textures/Planet_MAT_baseColor.jpeg"
    }
  ],
  "materials": [
    {
      "doubleSided": true,
      "name": "Planet_MAT.008",
      "pbrMetallicRoughness": {
        "baseColorTexture": {
          "index": 0
        },
        "metallicFactor": 0.0,
        "roughnessFactor": 0.6
      }
    },
    {
      "doubleSided": true,
      "name": "Planet_MAT.007",
      "pbrMetallicRoughness": {
        "baseColorTexture": {
          "index": 1
        },
        "metallicFactor": 0.0,
        "roughnessFactor": 0.6
      }
    },
    {
      "doubleSided": true,
      "name": "Planet_MAT.006",
      "pbrMetallicRoughness": {
        "baseColorTexture": {
          "index": 2
        },
        "metallicFactor": 0.0,
        "roughnessFactor": 0.6
      }
    },
    {
      "doubleSided": true,
      "name": "Planet_MAT.005",
      "pbrMetallicRoughness": {
        "baseColorTexture": {
          "index": 3
        },
        "metallicFactor": 0.0,
        "roughnessFactor": 0.6
      }
    },
    {
      "doubleSided": true,
      "name": "Planet_MAT.004",
      "pbrMetallicRoughness": {
        "baseColorTexture": {
          "index": 4
        },
        "metallicFactor": 0.0,
        "roughnessFactor": 0.6
      }
    },
    {
      "doubleSided": true,
      "name": "Planet_MAT.003",
      "pbrMetallicRoughness": {
        "baseColorTexture": {
          "index": 5
        },
        "metallicFactor": 0.0,
        "roughnessFactor": 0.6
      }
    },
    {
      "doubleSided": true,
      "name": "Planet_MAT.002",
      "pbrMetallicRoughness": {
        "baseColorTexture": {
          "index": 6
        },
        "metallicFactor": 0.0,
        "roughnessFactor": 0.6
      }
    },
    {
      "doubleSided": true,
      "name": "Planet_MAT.001",
      "pbrMetallicRoughness": {
        "baseColorTexture": {
          "index": 7
        },
        "metallicFactor": 0.0,
        "roughnessFactor": 0.6
      }
    },
    {
      "doubleSided": true,
      "name": "Planet_MAT",
      "pbrMetallicRoughness": {
        "baseColorTexture": {
          "index": 8
        },
        "metallicFactor": 0.0,
        "roughnessFactor": 0.6
      }
    }
  ],
  "meshes": [
    {
      "name": "Sphere_0",
      "primitives": [
        {
          "attributes": {
            "NORMAL": 1,
            "POSITION": 0,
            "TEXCOORD_0": 2
          },
          "indices": 3,
          "material": 8,
          "mode": 4
        }
      ]
    },
    {
      "name": "Sphere.001_0",
      "primitives": [
        {
          "attributes": {
            "NORMAL": 5,
            "POSITION": 4,
            "TEXCOORD_0": 6
          },
          "indices": 7,
          "material": 7,
          "mode": 4
        }
      ]
    },
    {
      "name": "Sphere.002_0",
      "primitives": [
        {
          "attributes": {
            "NORMAL": 9,
            "POSITION": 8,
            "TEXCOORD_0": 10
          },
          "indices": 11,
          "material": 6,
          "mode": 4
        }
      ]
    },
    {
      "name": "Sphere.003_0",
      "primitives": [
        {
          "attributes": {
            "NORMAL": 13,
            "POSITION": 12,
            "TEXCOORD_0": 14
          },
          "indices": 15,
          "material": 5,
          "mode": 4
        }
      ]
    },
    {
      "name": "Sphere.004_0",
      "primitives": [
        {
          "attributes": {
            "NORMAL": 17,
            "POSITION": 16,
            "TEXCOORD_0": 18
          },
          "indices": 19,
          "material": 4,
          "mode": 4
        }
      ]
    },
    {
      "name": "Sphere.005_0",
      "primitives": [
        {
          "attributes": {
            "NORMAL": 21,
            "POSITION": 20,
            "TEXCOORD_0": 22
          },
          "indices": 23,
          "material": 3,
          "mode": 4
        }
      ]
    },
    {
      "name": "Sphere.006_0",
      "primitives": [
        {
          "attributes": {
            "NORMAL": 25,
            "POSITION": 24,
            "TEXCOORD_0": 26
          },
          "indices": 27,
          "material": 2,
          "mode": 4
        }
      ]
    },
    {
      "name": "Sphere.007_0",
      "primitives": [
        {
          "attributes": {
            "NORMAL": 29,
            "POSITION": 28,
            "TEXCOORD_0": 30
          },
          "indices": 31,
          "material": 1,
          "mode": 4
        }
      ]
    },
    {
      "name": "Sphere.008_0",
      "primitives": [
        {
          "attributes": {
            "NORMAL": 33,
            "POSITION": 32,
            "TEXCOORD_0": 34
          },
          "indices": 35,
          "material": 0,
          "mode": 4
        }
      ]
    }
  ],
  "nodes": [
    {
      "children": [
        1
      ],
      "matrix": [
        1.0,
        0.0,
        0.0,
        0.0,
        0.0,
        2.220446049250313e-16,
        -1.0,
        0.0,
        0.0,
        1.0,
        2.220446049250313e-16,
        0.0,
        0.0,
        0.0,
        0.0,
        1.0
      ],
      "name": "Sketchfab_model"
    },
    {
      "children": [
        2,
        4,
        6,
        8,
        10,
        12,
        14,
        16,
        18,
        20,
        21
      ],
      "name": "Root"
    },
    {
      "children": [
        3
      ],
      "matrix": [
        1.5504,
        0.0,
        0.0,
        0.0,
        0.0,
        1.5504,
        -0.0,
        0.0,
        0.0,
        0.0,
        1.5504,
        0.0,
        -4.624849999999999,
        -0.16235000000000002,
        0.0,
        1.0
      ],
      "name": "Sphere"
    },
    {
      "mesh": 0,
      "name": "Sphere_0"
    },
    {
      "children": [
        5
      ],
      "matrix": [
        1.36609,
        0.0,
        0.0,
        0.0,
        0.0,
        1.36609,
        -0.0,
        0.0,
        0.0,
        0.0,
        1.36609,
        0.0,
        -1.3602800000000002,
        -1.14894,
        0.0,
        1.0
      ],
      "name": "Sphere.001"
    },
    {
      "mesh": 1,
      "name": "Sphere.001_0"
    },
    {
      "children": [
        7
      ],
      "matrix": [
        1.67924,
        0.20875000000000002,
        0.0,
        0.0,
        -0.20875000000000002,
        1.67924,
        -0.0,
        0.0,
        -0.0,
        0.0,
        1.69216,
        0.0,
        -2.27937,
        -3.0097300000000002,
        0.0,
        1.0
      ],
      "name": "Sphere.002"
    },
    {
      "mesh": 2,
      "name": "Sphere.002_0"
    },
    {
      "children": [
        9
      ],
      "matrix": [
        2.5801600000000002,
        0.0,
        0.0,
        0.0,
        0.0,
        2.5801600000000002,
        -0.0,
        0.0,
        0.0,
        0.0,
        2.5801600000000002,
        0.0,
        -2.51158,
        1.6360000000000001,
        0.0,
        1.0
      ],
      "name": "Sphere.003"
    },
    {
      "mesh": 3,
      "name": "Sphere.003_0"
    },
    {
      "children": [
        11
      ],
      "matrix": [
        1.4778799999999999,
        0.0,
        0.0,
        0.0,
        0.0,
        1.4778799999999999,
        -0.0,
        0.0,
        0.0,
        0.0,
        1.4778799999999999,
        0.0,
        -0.7831,
        3.0472,
        0.0,
        1.0
      ],
      "name": "Sphere.004"
    },
    {
      "mesh": 4,
      "name": "Sphere.004_0"
    },
    {
      "children": [
        13
      ],
      "matrix": [
        -0.93798,
        -1.4110099999999999,
        0.0,
        0.0,
        1.4110099999999999,
        -0.93798,
        -0.0,
        0.0,
        0.0,
        -0.0,
        1.6943300000000001,
        0.0,
        1.59479,
        0.79927,
        0.0,
        1.0
      ],
      "name": "Sphere.005"
    },
    {
      "mesh": 5,
      "name": "Sphere.005_0"
    },
    {
      "children": [
        15
      ],
      "matrix": [
        2.05473,
        0.0,
        0.0,
        0.0,
        0.0,
        2.05473,
        -0.0,
        0.0,
        0.0,
        0.0,
        2.05473,
        0.0,
        3.1859,
        -1.8233199999999998,
        0.0,
        1.0
      ],
      "name": "Sphere.006"
    },
    {
      "mesh": 6,
      "name": "Sphere.006_0"
    },
    {
      "children": [
        17
      ],
      "matrix": [
        0.42280000000000006,
        -0.24578000000000003,
        0.0,
        0.0,
        0.24578000000000003,
        0.42280000000000006,
        -0.0,
        0.0,
        0.0,
        0.0,
        0.48905000000000004,
        0.0,
        1.4175899999999997,
        -3.9213999999999998,
        0.0,
        1.0
      ],
      "name": "Sphere.007"
    },
    {
      "mesh": 7,
      "name": "Sphere.007_0"
    },
    {
      "children": [
        19
      ],
      "matrix": [
        -0.18318,
        -0.7736700000000001,
        -0.60653,
        0.0,
        0.98083,
        -0.10207000000000001,
        -0.16602000000000003,
        0.0,
        0.06653000000000002,
        -0.62531,
        0.77754,
        0.0,
        5.50147,
        -4.4025,
        -4.77765,
        1.0
      ],
      "name": "Sun"
    },
    {
      "name": "Sun"
    },
    {
      "name": "Camera",
      "rotation": [
        0.5716424584388733,
        -0.04456019029021263,
        -0.06368027627468109,
        0.8168135285377502
      ],
      "translation": [
        -0.7386599779129028,
        -7.114480018615723,
        2.3149499893188477
      ]
    },
    {
      "children": [
        22
      ],
      "matrix": [
        2.3667999999999996,
        0.0,
        0.0,
        0.0,
        0.0,
        2.3667999999999996,
        -0.0,
        0.0,
        0.0,
        0.0,
        2.3667999999999996,
        0.0,
        3.8056099999999997,
        1.11148,
        0.51701,
        1.0
      ],
      "name": "Sphere.008"
    },
    {
      "mesh": 8,
      "name": "Sphere.008_0"
    }
  ],
  "samplers": [
    {
      "magFilter": 9729,
      "minFilter": 9987,
      "wrapS": 10497,
      "wrapT": 10497
    }
  ],
  "scene": 0,
  "scenes": [
    {
      "name": "Sketchfab_Scene",
      "nodes": [
        0
      ]
    }
  ],
  "textures": [
    {
      "sampler": 0,
      "source": 0
    },
    {
      "sampler": 0,
      "source": 1
    },
    {
      "sampler": 0,
      "source": 2
    },
    {
      "sampler": 0,
      "source": 3
    },
    {
      "sampler": 0,
      "source": 4
    },
    {
      "sampler": 0,
      "source": 5
    },
    {
      "sampler": 0,
      "source": 6
    },
    {
      "sampler": 0,
      "source": 7
    },
    {
      "sampler": 0,
      "source": 8
    }
  ]
}
